<svg width="200" height="30" viewBox="0 0 200 30" fill="none" xmlns="http://www.w3.org/2000/svg">
<g filter="url(#filter0_d_19_3148)">
<path d="M43.5074 3.78405C45.2168 3.78405 46.7106 4.12285 47.9888 4.80045C49.267 5.47805 50.2526 6.43285 50.9456 7.66485C51.654 8.88145 52.0082 10.2905 52.0082 11.8921C52.0082 13.4783 51.654 14.8875 50.9456 16.1195C50.2526 17.3515 49.2593 18.3063 47.9657 18.9839C46.6875 19.6615 45.2014 20.0002 43.5074 20.0002H37.4321V3.78405H43.5074ZM43.2533 16.5815C44.7471 16.5815 45.9098 16.1734 46.7414 15.3572C47.573 14.541 47.9888 13.3859 47.9888 11.8921C47.9888 10.3983 47.573 9.23565 46.7414 8.40405C45.9098 7.57245 44.7471 7.15665 43.2533 7.15665H41.3822V16.5815H43.2533Z" fill="#0091FF"/>
<path d="M59.9445 20.1851C58.6817 20.1851 57.5421 19.9156 56.5257 19.3766C55.5247 18.8376 54.7316 18.0676 54.1464 17.0666C53.5766 16.0656 53.2917 14.8952 53.2917 13.5554C53.2917 12.231 53.5843 11.0683 54.1695 10.0673C54.7547 9.05085 55.5555 8.27315 56.5719 7.73415C57.5883 7.19515 58.7279 6.92565 59.9907 6.92565C61.2535 6.92565 62.3931 7.19515 63.4095 7.73415C64.4259 8.27315 65.2267 9.05085 65.8119 10.0673C66.3971 11.0683 66.6897 12.231 66.6897 13.5554C66.6897 14.8798 66.3894 16.0502 65.7888 17.0666C65.2036 18.0676 64.3951 18.8376 63.3633 19.3766C62.3469 19.9156 61.2073 20.1851 59.9445 20.1851ZM59.9445 16.7663C60.6991 16.7663 61.3382 16.4891 61.8618 15.9347C62.4008 15.3803 62.6703 14.5872 62.6703 13.5554C62.6703 12.5236 62.4085 11.7304 61.8849 11.176C61.3767 10.6216 60.7453 10.3444 59.9907 10.3444C59.2207 10.3444 58.5816 10.6216 58.0734 11.176C57.5652 11.715 57.3111 12.5082 57.3111 13.5554C57.3111 14.5872 57.5575 15.3803 58.0503 15.9347C58.5585 16.4891 59.1899 16.7663 59.9445 16.7663Z" fill="#0091FF"/>
<path d="M72.5968 8.93535C72.9664 8.33475 73.4977 7.84965 74.1907 7.48005C74.8837 7.11045 75.6768 6.92565 76.57 6.92565C77.6326 6.92565 78.5951 7.19515 79.4575 7.73415C80.3199 8.27315 80.9975 9.04315 81.4903 10.0441C81.9985 11.0451 82.2526 12.2078 82.2526 13.5323C82.2526 14.8567 81.9985 16.0271 81.4903 17.0435C80.9975 18.0445 80.3199 18.8222 79.4575 19.3766C78.5951 19.9156 77.6326 20.1851 76.57 20.1851C75.6614 20.1851 74.8683 20.008 74.1907 19.6538C73.5131 19.2842 72.9818 18.7991 72.5968 18.1985V20.0002H68.6467V2.90625H72.5968V8.93535ZM78.2332 13.5323C78.2332 12.5467 77.956 11.7767 77.4016 11.2222C76.8626 10.6524 76.1927 10.3675 75.3919 10.3675C74.6065 10.3675 73.9366 10.6524 73.3822 11.2222C72.8432 11.7921 72.5737 12.5698 72.5737 13.5554C72.5737 14.541 72.8432 15.3187 73.3822 15.8885C73.9366 16.4583 74.6065 16.7432 75.3919 16.7432C76.1773 16.7432 76.8472 16.4583 77.4016 15.8885C77.956 15.3033 78.2332 14.5179 78.2332 13.5323Z" fill="#0091FF"/>
<path d="M88.1364 8.93535C88.506 8.33475 89.0373 7.84965 89.7303 7.48005C90.4233 7.11045 91.2164 6.92565 92.1096 6.92565C93.1722 6.92565 94.1348 7.19515 94.9972 7.73415C95.8596 8.27315 96.5371 9.04315 97.0299 10.0441C97.5381 11.0451 97.7922 12.2078 97.7922 13.5323C97.7922 14.8567 97.5381 16.0271 97.0299 17.0435C96.5371 18.0445 95.8596 18.8222 94.9972 19.3766C94.1348 19.9156 93.1722 20.1851 92.1096 20.1851C91.201 20.1851 90.4079 20.008 89.7303 19.6538C89.0527 19.2842 88.5214 18.7991 88.1364 18.1985V20.0002H84.1863V2.90625H88.1364V8.93535ZM93.7729 13.5323C93.7729 12.5467 93.4957 11.7767 92.9412 11.2222C92.4022 10.6524 91.7323 10.3675 90.9315 10.3675C90.1461 10.3675 89.4762 10.6524 88.9218 11.2222C88.3828 11.7921 88.1133 12.5698 88.1133 13.5554C88.1133 14.541 88.3828 15.3187 88.9218 15.8885C89.4762 16.4583 90.1461 16.7432 90.9315 16.7432C91.7169 16.7432 92.3869 16.4583 92.9412 15.8885C93.4957 15.3033 93.7729 14.5179 93.7729 13.5323Z" fill="#0091FF"/>
<path d="M103.676 2.90625V20.0002H99.726V2.90625H103.676Z" fill="#0091FF"/>
<path d="M118.551 13.3475C118.551 13.7171 118.528 14.1021 118.481 14.5024H109.542C109.603 15.3033 109.857 15.9193 110.304 16.3505C110.766 16.7663 111.328 16.9741 111.99 16.9741C112.976 16.9741 113.661 16.5584 114.046 15.7268H118.25C118.035 16.5738 117.642 17.336 117.072 18.0136C116.518 18.6912 115.817 19.2225 114.97 19.6075C114.123 19.9925 113.176 20.1851 112.129 20.1851C110.866 20.1851 109.742 19.9156 108.756 19.3766C107.771 18.8376 107.001 18.0676 106.446 17.0666C105.892 16.0656 105.615 14.8952 105.615 13.5554C105.615 12.2156 105.884 11.0451 106.423 10.0441C106.978 9.04315 107.748 8.27315 108.733 7.73415C109.719 7.19515 110.851 6.92565 112.129 6.92565C113.376 6.92565 114.485 7.18745 115.455 7.71105C116.425 8.23465 117.18 8.98155 117.719 9.95175C118.273 10.922 118.551 12.0539 118.551 13.3475ZM114.508 12.308C114.508 11.6303 114.277 11.0914 113.815 10.6909C113.353 10.2906 112.776 10.0903 112.083 10.0903C111.42 10.0903 110.858 10.2828 110.396 10.6679C109.95 11.0529 109.673 11.5995 109.565 12.308H114.508Z" fill="#0091FF"/>
<path d="M18.429 0.0136719C24.0572 0.299146 28.5334 4.95317 28.5334 10.6523L28.5198 11.2002C28.2439 16.6471 23.8758 21.0147 18.429 21.291L17.8811 21.3047H14.3547V16.7861H17.8811C21.2681 16.7858 24.0139 14.0394 24.0139 10.6523C24.0139 7.26533 21.2681 4.51989 17.8811 4.51953H6.5061V0H17.8811L18.429 0.0136719Z" fill="#0091FF"/>
<path d="M16.7746 8.45886C15.2572 8.39767 13.7465 8.69208 12.3631 9.31861C10.9797 9.94513 9.76199 10.8864 8.8071 12.0673C7.85221 13.2482 7.18663 14.6359 6.86349 16.1198C6.54036 17.6037 6.56862 19.1425 6.94602 20.6135L11.4386 19.4609C11.2409 18.6903 11.2261 17.8841 11.3954 17.1067C11.5646 16.3293 11.9133 15.6022 12.4136 14.9836C12.9139 14.3649 13.5518 13.8718 14.2766 13.5436C15.0013 13.2154 15.7928 13.0611 16.5877 13.0932L16.7746 8.45886Z" fill="#0091FF"/>
</g>
<defs>
<filter id="filter0_d_19_3148" x="0" y="0" width="204" height="29.3047" filterUnits="userSpaceOnUse" color-interpolation-filters="sRGB">
<feFlood flood-opacity="0" result="BackgroundImageFix"/>
<feColorMatrix in="SourceAlpha" type="matrix" values="0 0 0 0 0 0 0 0 0 0 0 0 0 0 0 0 0 0 127 0" result="hardAlpha"/>
<feOffset dy="4"/>
<feGaussianBlur stdDeviation="2"/>
<feComposite in2="hardAlpha" operator="out"/>
<feColorMatrix type="matrix" values="0 0 0 0 0 0 0 0 0 0 0 0 0 0 0 0 0 0 0.25 0"/>
<feBlend mode="normal" in2="BackgroundImageFix" result="effect1_dropShadow_19_3148"/>
<feBlend mode="normal" in="SourceGraphic" in2="effect1_dropShadow_19_3148" result="shape"/>
</filter>
</defs>
</svg>
