<svg width="32" height="32" viewBox="4 -2 26 26" fill="none" xmlns="http://www.w3.org/2000/svg">
  <path d="M18.429 0.0136719C24.0572 0.299146 28.5334 4.95317 28.5334 10.6523L28.5198 11.2002C28.2439 16.6471 23.8758 21.0147 18.429 21.291L17.8811 21.3047H14.3547V16.7861H17.8811C21.2681 16.7858 24.0139 14.0394 24.0139 10.6523C24.0139 7.26533 21.2681 4.51989 17.8811 4.51953H6.5061V0H17.8811L18.429 0.0136719Z" fill="#0091FF"/>
  <path d="M16.7746 8.45886C15.2572 8.39767 13.7465 8.69208 12.3631 9.31861C10.9797 9.94513 9.76199 10.8864 8.8071 12.0673C7.85221 13.2482 7.18663 14.6359 6.86349 16.1198C6.54036 17.6037 6.56862 19.1425 6.94602 20.6135L11.4386 19.4609C11.2409 18.6903 11.2261 17.8841 11.3954 17.1067C11.5646 16.3293 11.9133 15.6022 12.4136 14.9836C12.9139 14.3649 13.5518 13.8718 14.2766 13.5436C15.0013 13.2154 15.7928 13.0611 16.5877 13.0932L16.7746 8.45886Z" fill="#0091FF"/>
</svg>
